<svg xmlns="http://www.w3.org/2000/svg" viewBox="0 0 640 720" role="img" aria-labelledby="title desc">
  <title id="title">Debt Free Crest</title>
  <desc id="desc">Stylized heraldic eagle over a shield holding a key with a ribbon banner that reads Debt Free.</desc>
  <defs>
    <linearGradient id="shieldGradient" x1="0" x2="0" y1="0" y2="1">
      <stop offset="0%" stop-color="#1c2833" />
      <stop offset="100%" stop-color="#010509" />
    </linearGradient>
    <linearGradient id="metalGradient" x1="0" x2="1" y1="0" y2="1">
      <stop offset="0%" stop-color="#f2d17d" />
      <stop offset="40%" stop-color="#d9a94f" />
      <stop offset="100%" stop-color="#9c6d23" />
    </linearGradient>
    <linearGradient id="darkMetalGradient" x1="0" x2="1" y1="0" y2="1">
      <stop offset="0%" stop-color="#b38a3a" />
      <stop offset="80%" stop-color="#714b1b" />
    </linearGradient>
    <radialGradient id="wingHighlight" cx="50%" cy="35%" r="65%">
      <stop offset="0" stop-color="#f6dfa2" stop-opacity="0.6" />
      <stop offset="1" stop-color="#bc8a34" stop-opacity="0" />
    </radialGradient>
    <filter id="shadow" x="-10%" y="-10%" width="120%" height="130%">
      <feDropShadow dx="0" dy="15" stdDeviation="18" flood-color="#000" flood-opacity="0.4" />
    </filter>
    <style>
      text {
        font-family: "Cinzel", "Trajan Pro", "Times New Roman", serif;
        letter-spacing: 2px;
      }
    </style>
  </defs>

  <g filter="url(#shadow)">
    <path d="M320 40c-60 65-182 97-182 97v186c0 99 66 173 182 225 116-52 182-126 182-225V137s-122-32-182-97z" fill="url(#shieldGradient)" stroke="#d3a24a" stroke-width="14" stroke-linejoin="round" />
    <path d="M320 55c-50 58-160 84-160 84v169c0 85 55 147 160 193 105-46 160-108 160-193V139s-110-26-160-84z" fill="none" stroke="#f6dfa2" stroke-width="6" stroke-linejoin="round" opacity="0.45" />

    <g fill="url(#metalGradient)" stroke="#3d2b0f" stroke-width="4" stroke-linejoin="round">
      <path d="M320 132c-14 46-42 73-78 96l-54 35c-7 5-8 12-4 18 4 6 11 7 18 4l57-28c-16 27-36 55-58 80l-34 36c-5 5-5 12-1 17 5 5 13 6 19 1l43-34c20-16 40-37 58-60 5 7 12 13 20 17l-12 46c-2 8 3 15 11 17 8 1 14-4 16-12l10-48c9 1 17 1 26 0l10 48c2 8 8 13 16 12 8-2 13-9 11-17l-12-46c8-4 15-10 20-17 18 23 38 44 58 60l43 34c6 5 14 4 19-1 4-5 4-12-1-17l-34-36c-22-25-42-53-58-80l57 28c7 3 14 2 18-4 4-6 3-13-4-18l-54-35c-36-23-64-50-78-96h-28z" />
      <path d="M320 132c5 33 27 70 64 96 34 25 69 38 69 38l-32-46c-21-30-54-59-79-70-9-4-19-7-22-18z" fill="url(#darkMetalGradient)" />
      <path d="M320 132c-5 33-27 70-64 96-34 25-69 38-69 38l32-46c21-30 54-59 79-70 9-4 19-7 22-18z" fill="url(#darkMetalGradient)" />
      <path d="M312 246c-12 0-22 10-22 22 0 9 5 16 13 20l-9 35c-2 7 3 14 10 16 7 2 14-3 16-10l10-39h18l10 39c2 7 9 12 16 10 7-2 12-9 10-16l-9-35c8-4 13-11 13-20 0-12-10-22-22-22h-54z" fill="url(#darkMetalGradient)" />
      <path d="M374 262c-6 0-12 5-12 12 0 5 3 9 7 11l36 16c6 3 14 0 17-7 3-6 0-14-7-17l-26-12c-5-2-10-3-15-3z" />
      <path d="M266 262c6 0 12 5 12 12 0 5-3 9-7 11l-36 16c-6 3-14 0-17-7-3-6 0-14 7-17l26-12c5-2 10-3 15-3z" />
      <path d="M320 208c-10 0-18 8-18 18s8 18 18 18 18-8 18-18-8-18-18-18z" fill="#f8e6b6" />
      <path d="M406 188c-18 0-36 7-50 20l-20 20c-6 6-6 15 0 21s15 6 21 0l20-20c16-16 42-16 58 0 5 6 15 6 21 0 6-6 6-15 0-21-14-13-32-20-50-20z" />
      <path d="M234 188c18 0 36 7 50 20l20 20c6 6 6 15 0 21s-15 6-21 0l-20-20c-16-16-42-16-58 0-5 6-15 6-21 0-6-6-6-15 0-21 14-13 32-20 50-20z" />
    </g>

    <g opacity="0.4">
      <path d="M156 310c28 0 56-10 78-28l44-34c5-4 12-3 16 2s3 12-2 16l-44 34c-26 20-58 32-92 32-7 0-12-5-12-12s5-10 12-10z" fill="url(#wingHighlight)" />
      <path d="M484 310c-28 0-56-10-78-28l-44-34c-5-4-12-3-16 2s-3 12 2 16l44 34c26 20 58 32 92 32 7 0 12-5 12-12s-5-10-12-10z" fill="url(#wingHighlight)" />
    </g>

    <g transform="translate(0,428)">
      <path d="M113 64c0-40 94-72 207-72s207 32 207 72c0 13-9 24-24 32l-96 48c-54 27-120 27-174 0l-96-48c-15-8-24-19-24-32z" fill="url(#metalGradient)" stroke="#3d2b0f" stroke-width="6" />
      <path d="M149 56c0-27 77-48 171-48s171 21 171 48c0 9-6 17-17 24l-84 42c-45 22-98 22-143 0l-84-42c-11-7-17-15-17-24z" fill="none" stroke="#f6dfa2" stroke-width="4" opacity="0.5" />
      <text x="320" y="80" font-size="66" font-weight="700" fill="#2b1b07" text-anchor="middle">DEBT FREE</text>
      <text x="320" y="78" font-size="66" font-weight="700" fill="#f8e6b6" text-anchor="middle">DEBT FREE</text>
    </g>

    <g transform="translate(0,90)" fill="url(#metalGradient)" stroke="#3d2b0f" stroke-width="5" stroke-linecap="round" stroke-linejoin="round">
      <path d="M320 156c-10 0-18 8-18 18s8 18 18 18 18-8 18-18-8-18-18-18zm52 20c-8 0-14 6-14 14s6 14 14 14h14c6 0 10-4 10-10s-4-10-10-10h-6c-2-4-5-8-8-8z" />
      <path d="M386 194h24c6 0 10 4 10 10s-4 10-10 10h-18l-10 10 10 10h30c13 0 24-11 24-24s-11-24-24-24h-24z" />
    </g>
  </g>
</svg>
