<!-- GFSR / DebtReliefGuard — Fontless, all-paths SVG -->
<svg xmlns="http://www.w3.org/2000/svg" viewBox="0 0 740 320" width="180" role="img" aria-labelledby="title desc" style="display:inline-block;vertical-align:middle;--logo-color:#0A5C4A">
  <title id="title">GFSR — Gateway Financial Settlement Relief</title>
  <desc id="desc">Stylized Statue of Liberty mark with GFSR wordmark and stacked company name, all vector paths (no fonts).</desc>
  <g fill="var(--logo-color)">
    <!-- LEFT MARK: simplified Statue of Liberty (vector only) -->
    <g transform="translate(10,10)">
      <!-- Torch head -->
      <path d="M50 34 h110 v28 H50z"/>
      <!-- Torch shaft -->
      <path d="M78 62 v168 h54 V62z"/>
      <!-- Flame -->
      <path d="M132 18c23 9 41 30 36 50-3 13-15 25-28 30 7-10 9-22 4-32-6-11-17-17-30-18 9-7 13-19 18-30z"/>
      <!-- Crown rays -->
      <path d="M172 118 l36-26 9 12-36 27zM147 122 l13-38 15 4-13 38zM130 128 l-6-40 15-2 6 40z"/>
      <!-- Head + neck + robe block -->
      <path d="M120 176c0-36 26-64 58-64 32 0 58 28 58 64v56h-32v-40c0-18-13-32-26-32-15 0-28 14-28 32v40h-30z"/>
      <!-- Robe folds -->
      <path d="M120 232c16 8 30 22 36 40h-36zM178 232c14 10 22 25 24 40h-24z"/>
    </g>

    <!-- WORDMARK RIGHT (letters built as paths; no fonts) -->
    <g transform="translate(280,22) scale(1)">
      <!-- G -->
      <path d="M0 70c0-46 36-78 90-78 31 0 56 7 75 21l-22 25c-13-9-30-14-50-14-37 0-59 20-59 46 0 29 24 47 60 47 18 0 32-4 44-12V86h-45V60h78v73c-20 18-49 29-83 29-61 0-88-35-88-92z"/>
      <!-- F -->
      <path d="M210 0h36v82h88v30h-88v52h96v30h-132z"/>
      <!-- S -->
      <path d="M390 18c46 0 77 18 90 41l-28 18c-10-16-30-29-62-29-28 0-44 10-44 26 0 13 10 19 38 23l33 5c44 7 67 23 67 57 0 41-38 66-96 66-49 0-85-17-101-44l28-18c13 20 38 32 74 32 34 0 54-12 54-30 0-14-11-22-38-26l-34-5c-47-7-66-24-66-55 0-36 35-61 85-61z"/>
      <!-- R -->
      <path d="M590 0h36v92h20c54 0 81 20 81 58 0 27-15 47-45 56l57 74h-43l-53-70h-17v70h-36zm36 122v42h32c32 0 48-8 48-29 0-20-16-28-48-28z"/>

      <!-- Stacked small text as vector blocks (readable, compact) -->
      <!-- GATEWAY -->
      <g transform="translate(4,150) scale(0.9)">
        <path d="M0 34c0-22 17-38 44-38 13 0 24 3 32 9l-9 12c-6-4-14-6-23-6-18 0-29 10-29 24 0 16 12 25 31 25 9 0 16-2 21-6v-12H45V28h34v34c-9 8-24 13-41 13-32 0-48-17-48-41z"/>
        <path d="M96 0h15l37 75h-17l-9-19H84l-9 19H58zm-1 44h28l-14-30z"/>
        <path d="M170 0h16l19 52 19-52h16l25 75h-16l-16-51-18 51h-14l-18-51-16 51h-16z"/>
        <path d="M300 0h16v61h44v14h-60z"/>
        <path d="M372 0h16v75h-16z"/>
        <path d="M406 0h15l37 75h-17l-9-19h-29l-9 19h-17zm-1 44h28l-14-30z"/>
        <path d="M480 0h16l19 52 19-52h16l25 75h-16l-16-51-18 51h-14l-18-51-16 51h-16z"/>
      </g>

      <!-- FINANCIAL -->
      <g transform="translate(4,190) scale(0.9)">
        <path d="M0 0h60v14H16v17h44v14H16v30H0z"/>
        <path d="M76 0h16v75H76z"/>
        <path d="M110 0h14l46 49V0h16v75h-13l-47-50v50h-16z"/>
        <path d="M206 38c0-23 18-40 43-40s43 17 43 40-18 40-43 40-43-17-43-40zm70 0c0-14-10-26-27-26s-27 12-27 26 10 26 27 26 27-12 27-26z"/>
        <path d="M332 0h16v75h-16z"/>
        <path d="M366 0h14l46 49V0h16v75h-13l-47-50v50h-16z"/>
        <path d="M462 0h16v75h-16z"/>
        <path d="M496 0h60v14h-44v17h38v14h-38v16h44v14h-60z"/>
        <path d="M576 0h17l20 52 20-52h16l-28 75h-14z"/>
      </g>

      <!-- SETTLEMENT -->
      <g transform="translate(4,230) scale(0.9)">
        <path d="M0 13C6 4 22-2 38-2c22 0 37 9 37 24 0 12-9 18-30 21l-16 2c-12 2-17 4-17 9 0 6 8 10 21 10 12 0 22-4 28-10l9 11c-9 9-25 15-43 15-23 0-38-10-38-24 0-12 9-19 29-22l16-2c12-2 18-4 18-9 0-7-9-11-22-11-12 0-23 4-30 10z"/>
        <path d="M94 0h60v14h-44v17h38v14h-38v16h44v14H94z"/>
        <path d="M174 0h60v14h-44v17h38v14h-38v16h44v14h-60z"/>
        <path d="M254 0h16v61h44v14h-60z"/>
        <path d="M326 0h16v75h-16z"/>
        <path d="M360 0h16v75h-16z"/>
        <path d="M394 0h16v61h44v14h-60z"/>
        <path d="M466 0h16v75h-16z"/>
        <path d="M500 0h14l46 49V0h16v75h-13l-47-50v50h-16z"/>
      </g>

      <!-- RELIEF -->
      <g transform="translate(4,270) scale(0.9)">
        <path d="M0 0h36v32h20c27 0 42 11 42 31 0 15-8 26-24 31l30 31H82L56 96H36v29H0zm36 46v22h29c14 0 22-5 22-13 0-9-8-9-22-9z"/>
        <path d="M118 0h60v14h-44v17h38v14h-38v16h44v14h-60z"/>
        <path d="M198 0h16v75h-16z"/>
        <path d="M232 0h60v14h-44v17h38v14h-38v16h44v14h-60z"/>
        <path d="M312 0h16v61h44v14h-60z"/>
        <path d="M384 0h60v14h-44v17h38v14h-38v16h44v14h-60z"/>
      </g>
    </g>
  </g>
</svg>
